<svg width="120" height="120" viewBox="0 0 120 120" fill="none" xmlns="http://www.w3.org/2000/svg">
<path d="M54.9101 15.2738L54.8973 15.288L54.8843 15.3021C54.5456 15.6692 54.1093 16.4228 53.7582 17.4951C53.4179 18.5343 53.2256 19.6673 53.2256 20.6468V20.6887L53.2242 20.7306C53.1538 22.8272 52.7904 24.6929 51.838 26.6966C50.9189 28.6303 49.5 30.5865 47.5011 32.9447L47.4936 32.9535C43.4134 37.7222 40.9071 41.4154 39.3391 45.0732C37.7841 48.7007 37.0864 52.4475 36.8507 57.419C36.667 61.4957 36.6883 63.6734 37.0651 65.5709C37.4359 67.4382 38.1793 69.1759 39.7632 72.3229L43.3064 79.3629L44.7952 82.321L41.5424 82.9425L38.3753 83.5475C35.5184 84.1168 33.6757 85.3118 32.4856 87.0356C31.2473 88.8292 30.5 91.5068 30.5 95.4165V98.5H60.5H90.3103L90.0187 94.5165C89.727 90.9346 89.0499 88.7602 88.0211 87.2937C87.0344 85.8873 85.5086 84.8292 82.8207 83.9573L82.8134 83.9549L82.8062 83.9525L78.7743 82.6174L76.0251 81.707L77.327 79.1202L80.5037 72.8084L80.5193 72.7776L80.5356 72.7472C81.8837 70.2433 82.5857 68.5445 82.9905 66.5597C83.4089 64.5081 83.5357 62.0303 83.5357 57.9103C83.5357 53.6535 83.4066 51.2975 82.9851 49.4132C82.5817 47.6098 81.8828 46.1169 80.4592 43.6403C78.6394 40.6109 76.1555 37.1726 73.9401 34.5023C72.8943 33.2417 71.9445 32.1961 71.1817 31.4603C70.6049 32.5645 69.939 34.1667 69.2764 36.0771C67.9137 40.006 66.6872 44.881 66.2852 48.7042L66.2833 48.7217L66.2812 48.7391C65.8675 52.2036 65.5052 54.6605 64.8529 56.2199C64.4893 57.0889 63.927 57.9644 62.9704 58.5481C62.0425 59.1142 61.0772 59.1965 60.3778 59.1965C59.7862 59.1965 58.8502 59.1675 57.967 58.7313C56.8934 58.2012 56.2912 57.2922 55.9916 56.3368C55.7301 55.5028 55.6675 54.5445 55.6614 53.5887C55.6552 52.5972 55.713 51.3706 55.804 49.8909C56.0017 45.2538 57.1233 39.6771 58.6582 34.6359C60.1805 29.6359 62.2049 24.8454 64.3579 21.9475L64.3616 21.9426C65.0659 20.9995 65.5318 20.3456 65.8424 19.8303C66.1501 19.3198 66.2123 19.0931 66.2269 19.0133C66.2273 19.0113 66.2278 19.0092 66.2283 19.0068C66.2415 18.9485 66.293 18.7207 65.4937 17.1937L65.4896 17.1859L65.4856 17.1781C64.4888 15.2407 62.533 13.9582 60.3797 13.5997C58.224 13.2409 56.185 13.8489 54.9101 15.2738Z" fill="black" fill-opacity="0.866667" stroke="white" stroke-width="5"/>
</svg>
