<svg width="120" height="120" viewBox="0 0 120 120" fill="none" xmlns="http://www.w3.org/2000/svg">
<path d="M30.9055 98.5H60H89.0945L88.6062 95.2636L88.6036 95.2465L88.6012 95.2294C88.1046 91.5978 87.226 88.8149 85.8892 86.5201C84.5614 84.2407 82.703 82.3079 80.0529 80.4848C77.12 78.4869 74.1941 75.4042 72.006 72.4093C70.903 70.8996 69.9435 69.3525 69.2486 67.9062C68.5866 66.5282 68.035 64.9797 68.035 63.5468C68.035 62.1532 68.5285 60.7527 69.7701 59.7833C70.9006 58.9006 72.3023 58.6562 73.5638 58.6562C74.4847 58.6562 75.2724 58.2402 75.8793 56.8409L75.8936 56.8081L75.9087 56.7757C76.4825 55.5503 76.8182 54.79 76.9919 54.2381C77.0309 54.1141 77.0552 54.0198 77.0703 53.9508C77.0182 53.9021 76.9437 53.8374 76.8396 53.7563C76.3818 53.3995 75.6808 52.9673 74.5269 52.2828L74.4943 52.2635L74.4623 52.2431C73.5877 51.6877 72.7937 51.1716 72.1755 50.6796C71.5834 50.2083 70.861 49.5392 70.4647 48.5842C70.0097 47.4881 70.1478 46.4473 70.45 45.6072C70.7158 44.8682 71.1627 44.1357 71.5849 43.4801C72.992 41.2296 73.718 39.1475 73.9057 37.1191C74.0933 35.0918 73.7571 32.9687 72.8257 30.6153C69.5222 22.5943 60.8039 19.335 53.6337 23.0061C46.7165 26.5496 44.0252 36.4216 48.4165 43.4823C48.8383 44.1374 49.2845 44.8691 49.55 45.6072C49.8522 46.4473 49.9903 47.4881 49.5353 48.5842C49.139 49.5392 48.4166 50.2083 47.8245 50.6796C47.2063 51.1717 46.4123 51.6877 45.5377 52.2431L45.4958 52.2697L45.4529 52.2946C44.3336 52.9446 43.6565 53.354 43.2115 53.6941C43.0834 53.792 43.0002 53.8655 42.9481 53.9158C42.9569 53.9897 42.9759 54.1036 43.0157 54.2676C43.1497 54.8189 43.424 55.5785 43.8964 56.8036L43.9044 56.8243L43.912 56.8452C44.2852 57.8668 44.6141 58.2108 44.807 58.3504C44.9829 58.4777 45.3493 58.6562 46.3045 58.6562C47.063 58.6562 47.8679 58.6762 48.572 58.8162C49.2851 58.9581 50.3325 59.307 51.0414 60.3284C51.7124 61.2951 51.7212 62.3622 51.6668 63.0377C51.61 63.7431 51.4328 64.537 51.2368 65.329C49.8717 71.1181 45.3219 76.93 39.8781 80.3976L39.8614 80.4082L39.8446 80.4186C35.246 83.2465 32.38 88.0546 31.3988 95.2294L31.3964 95.2465L31.3938 95.2636L30.9055 98.5ZM42.8708 53.9991C42.8709 53.9991 42.8716 53.9981 42.873 53.9961C42.8714 53.9981 42.8708 53.9991 42.8708 53.9991ZM42.9406 53.8061C42.9408 53.8039 42.9409 53.8027 42.9408 53.8027L42.9406 53.8061Z" fill="black" fill-opacity="0.866667" stroke="white" stroke-width="5"/>
</svg>
