<svg width="120" height="120" viewBox="0 0 120 120" fill="none" xmlns="http://www.w3.org/2000/svg">
<path d="M54.1929 31.2563L54.178 31.3086L54.1607 31.3603C54.1534 31.3822 54.1445 31.4105 54.1338 31.4443C54.0285 31.7785 53.7524 32.6543 53.1424 33.3162C52.2728 34.2598 51.1477 34.4769 50.2704 34.5217C49.4204 34.5652 48.344 34.4664 47.0414 34.3044C45.7531 34.1442 44.0683 33.8977 41.8873 33.5785L41.6082 33.5377L41.6056 33.5373C36.5498 32.7922 32.284 33.4462 28.8451 35.2349C25.4164 37.0184 22.6069 40.0347 20.6286 44.3766L20.6248 44.3849L20.6209 44.3932C18.4296 49.1106 17.962 52.7411 19.1006 56.5228C20.2934 60.4849 23.3389 64.9381 29.008 71.024L29.0194 71.0362L29.0306 71.0485L36.1155 78.8605L37.7774 80.6929L35.9626 82.374L32.4978 85.5836C31.0037 87.0159 30.4757 87.7291 30.1712 88.5853C29.8222 89.5664 29.6787 90.9823 29.6787 94.056V98.481L59.8403 98.2522L59.8499 98.2521L89.843 97.9094L89.6878 93.6511L89.6872 93.6334L89.6868 93.6157C89.6242 90.8057 89.4625 89.3736 89.1239 88.3929C88.8415 87.5751 88.3872 86.9309 87.2022 85.9093C86.2467 85.092 85.3499 84.1998 84.6716 83.4163C84.3358 83.0284 84.0166 82.6247 83.7655 82.2402C83.6412 82.05 83.503 81.818 83.3874 81.5621C83.2972 81.3623 83.0984 80.8903 83.0984 80.292C83.0984 79.5868 83.3796 79.0251 83.4718 78.8418C83.613 78.5609 83.7857 78.289 83.951 78.0489C84.2865 77.5616 84.7309 77.0056 85.2248 76.4308C86.2196 75.273 87.5502 73.8825 88.9628 72.537C97.2373 64.5233 100.5 58.3185 100.5 52.144C100.5 45.5411 97.8295 40.3515 93.6059 37.1278C89.3673 33.8927 83.3242 32.4588 76.2832 33.8846C73.6184 34.4408 71.6224 34.7496 70.1199 34.7101C68.4575 34.6665 67.0128 34.1783 65.9766 32.8491L65.8579 32.6969L65.764 32.5283C65.4816 32.0211 65.1605 31.2388 65.2603 30.3014C65.3716 29.2551 65.9518 28.4822 66.6059 27.9928C67.1945 27.5523 67.8677 27.3135 68.4412 27.1652C69.0393 27.0107 69.7135 26.9092 70.4355 26.8402C71.1093 26.7706 71.4989 26.7172 71.7395 26.6679C71.7722 26.499 71.812 26.2258 71.8422 25.8022C71.9027 24.9548 71.9117 23.8009 71.9117 22.136C71.9117 20.459 71.9105 19.312 71.8582 18.4725C71.845 18.261 71.8293 18.0911 71.8136 17.9562C71.5601 17.9452 71.202 17.94 70.6827 17.94C69.8417 17.94 68.9987 17.9203 68.2605 17.7934C67.503 17.6631 66.5649 17.3743 65.7941 16.6054C65.0226 15.8357 64.7321 14.8977 64.601 14.1394C64.4735 13.4014 64.4538 12.559 64.4538 11.72C64.4538 11.2067 64.4486 10.853 64.4378 10.6031C64.2916 10.5856 64.1037 10.568 63.8655 10.5535C63.0041 10.5011 61.8287 10.5 60.1175 10.5C58.4062 10.5 57.2308 10.5011 56.3694 10.5535C56.1312 10.568 55.9434 10.5856 55.7971 10.6031C55.7863 10.853 55.7811 11.2067 55.7811 11.72C55.7811 12.559 55.7615 13.4014 55.6339 14.1394C55.5029 14.8977 55.2123 15.8357 54.4408 16.6054C53.6701 17.3743 52.732 17.6631 51.9745 17.7934C51.2363 17.9203 50.3932 17.94 49.5522 17.94C49.034 17.94 48.6776 17.9452 48.426 17.9562C48.4087 18.1011 48.3913 18.2868 48.3769 18.522C48.3244 19.3807 48.3233 20.5526 48.3233 22.26C48.3233 23.8897 48.332 25.0391 48.3862 25.8864C48.4049 26.1792 48.4278 26.4029 48.4501 26.5714C48.614 26.5774 48.8111 26.58 49.055 26.58C50.2274 26.58 51.4785 26.7495 52.4916 27.3222C53.0242 27.6233 53.6145 28.1082 53.9867 28.8588C54.3807 29.6535 54.4085 30.5035 54.1929 31.2563Z" fill="white" stroke="black" stroke-width="5"/>
<path d="M71.4159 48.0879C66.6926 49.9479 65.6983 52.4279 66.0711 60.7359C66.444 68.1759 66.5683 68.5479 69.6758 68.5479C71.9131 68.5479 74.3991 66.8119 78.0037 62.5959C83.8456 55.8999 84.5914 51.6839 80.4896 48.8319C77.3822 46.5999 75.2691 46.4759 71.4159 48.0879Z" fill="black"/>
<path d="M48.6583 48.0879C53.3816 49.9479 54.376 52.4279 54.0031 60.7359C53.6302 68.1759 53.5059 68.5479 50.3985 68.5479C48.1611 68.5479 45.6752 66.8119 42.0705 62.5959C36.2286 55.8999 35.4828 51.6839 39.5846 48.8319C42.692 46.5999 44.8051 46.4759 48.6583 48.0879Z" fill="black"/>
</svg>
