<svg width="120" height="120" viewBox="0 0 120 120" fill="none" xmlns="http://www.w3.org/2000/svg">
<path d="M49.5904 19.3541L49.519 19.4297L49.4416 19.4992C49.2516 19.6696 48.8821 20.1538 48.4715 20.9826C48.093 21.7467 47.7732 22.6136 47.5777 23.3863C47.2988 24.7183 46.5539 26.2022 45.7689 27.4699C44.9394 28.8095 43.8987 30.1728 42.8464 31.2349L42.818 31.2635L42.7888 31.2912C42.0501 31.9902 41.1045 33.2092 40.2076 34.6662C39.3181 36.1111 38.5791 37.6229 38.1788 38.8351C37.1098 42.0721 33.5978 48.3446 30.5824 52.849C29.1061 55.0543 27.7553 57.1891 26.7812 58.8326C26.2918 59.6584 25.9133 60.3335 25.6644 60.8192C25.6108 60.9237 25.5667 61.013 25.5308 61.0879C25.633 61.6755 26.0014 62.5136 26.8039 63.4569C27.7332 64.5491 29.0582 65.5513 30.5494 66.1838C33.4569 67.3913 35.4498 67.752 36.7974 67.617C37.9568 67.5009 38.7544 67.0155 39.4406 65.9382L39.4635 65.9022L39.4876 65.8671C40.267 64.7308 41.4436 63.7 42.6644 62.9142C43.8649 62.1416 45.3127 61.474 46.7832 61.2089C48.5078 60.7812 51.9986 59.251 54.168 57.8305C55.1572 57.1654 56.039 56.6333 56.8091 56.2402C57.5446 55.8648 58.3291 55.5369 59.0855 55.4109C59.6854 55.311 61.3781 55.1851 62.3492 56.728C62.7696 57.3958 62.828 58.081 62.8031 58.5478C62.7781 59.0183 62.6612 59.4415 62.5414 59.7757C62.097 61.0149 61.0576 62.4994 59.7909 64.014C58.4614 65.6037 56.6778 67.4628 54.495 69.4797L54.4912 69.4832C52.5473 71.2721 50.5282 73.4251 48.8394 75.4501C47.1147 77.5182 45.8668 79.2956 45.3451 80.3487C43.9016 83.2626 40.9523 87.1737 38.6097 89.125C37.2425 90.2851 36.6541 91.0098 36.2636 91.923C35.825 92.9487 35.5443 94.4258 35.306 97.3049L35.0143 101.5H64.1672H93.5V98.4439C93.5 95.6717 93.1613 93.5974 92.5091 91.9517C91.8733 90.3475 90.893 89.0316 89.4096 87.8324L89.4039 87.8279C88.8819 87.4119 88.2011 86.8695 87.6918 86.193C87.0769 85.3761 86.7665 84.4632 86.7255 83.4132C86.6894 82.4911 86.864 81.4892 87.1066 80.4315C87.3557 79.3452 87.7319 77.9795 88.2062 76.2742L88.2103 76.2594L88.2146 76.2446C89.6125 71.4475 90.1097 65.5883 89.7357 59.9115C89.3604 54.2152 88.1233 48.9318 86.2335 45.2261L86.231 45.2212C83.8764 40.5786 79.5977 35.9101 74.794 32.3997C69.9322 28.8468 64.9507 26.7815 61.2951 26.7815C60.4166 26.7815 59.6133 26.4328 59.1069 26.1795C58.5173 25.8845 57.9005 25.4928 57.2981 25.0621C56.0877 24.1968 54.7545 23.0439 53.5355 21.8136L53.513 21.7908L53.491 21.7675C52.3515 20.5569 51.5308 19.7188 50.8913 19.1507C50.6278 18.9167 50.4295 18.7607 50.287 18.6578C50.1302 18.7997 49.9073 19.0183 49.5904 19.3541ZM57.8418 58.0669C57.8417 58.067 57.8408 58.0698 57.8393 58.0751C57.8412 58.0695 57.8419 58.0668 57.8418 58.0669Z" fill="white" stroke="black" stroke-width="5"/>
<path d="M47.652 37.8095C45.4979 40.9499 46.5749 41.7954 51.2422 40.7083C53.2766 40.1044 54.1143 39.2589 53.875 37.8095C53.2766 34.6691 49.8061 34.6691 47.652 37.8095Z" fill="black"/>
</svg>
