<svg width="120" height="120" viewBox="0 0 120 120" fill="none" xmlns="http://www.w3.org/2000/svg">
<path d="M33.1512 43.2444C32.5945 41.7531 32.5914 40.2647 32.9046 38.7525C33.0774 37.8733 33.0386 37.2134 32.8058 36.5351C32.5509 35.7923 32.0045 34.8591 30.8774 33.5499L30.8645 33.5349L30.8518 33.5197C29.158 31.4879 27.553 30.6539 26.1354 30.5078C24.7213 30.362 22.9893 30.8489 20.9308 32.5017L20.9153 32.5141L20.8995 32.5264C19.116 33.9122 18.4056 35.6212 18.51 37.4443C18.6195 39.3591 19.6563 41.7038 22.0032 44.0744C23.6105 45.6979 25.4883 48.7407 27.2902 52.1024C29.141 55.5552 31.0605 59.6324 32.7219 63.5559C34.3787 67.4688 35.8085 71.2985 36.6565 74.2487C37.074 75.7012 37.3876 77.0654 37.4831 78.1642C37.5289 78.6925 37.5439 79.3522 37.39 79.9919C37.2475 80.5837 36.7955 81.7443 35.4898 82.2171C35.4846 82.2193 35.4777 82.2224 35.4691 82.2264C35.445 82.2375 35.412 82.2536 35.3696 82.276C35.2837 82.3212 35.1739 82.3842 35.0407 82.4674C34.7729 82.6348 34.4491 82.86 34.0878 83.1354C33.3716 83.6814 32.5771 84.3721 31.8667 85.0872C30.9523 86.0661 30.505 86.7872 30.2194 87.7556C29.8968 88.8497 29.7373 90.4082 29.7373 93.167V97.4807L59.5559 97.2517L59.5656 97.2516L89.2188 96.9086L89.065 92.6358L89.0644 92.6183L89.064 92.6008C89.0028 89.8188 88.8156 88.3629 88.4774 87.382C88.1901 86.5491 87.7491 85.9254 86.706 84.974C85.916 84.2915 85.0709 83.638 84.35 83.1339C83.9856 82.8791 83.6717 82.6756 83.4264 82.5305C83.2087 82.4018 83.1129 82.3599 83.1135 82.3586C83.1135 82.3585 83.1142 82.3586 83.1155 82.3591L83.0982 82.3529C82.2084 82.0357 81.7299 81.3648 81.506 80.8675C81.2977 80.4048 81.2422 79.9642 81.2236 79.6817C81.1858 79.1065 81.2646 78.4959 81.3587 77.972C81.5554 76.8771 81.9529 75.4666 82.4577 73.9139C83.4782 70.7754 85.0573 66.6959 86.7869 62.6219C88.5181 58.5445 90.4256 54.4126 92.1156 51.1693C92.958 49.5527 93.7683 48.1144 94.4926 47.0011C94.8535 46.4465 95.2195 45.9315 95.5808 45.5014C95.8968 45.1252 96.3824 44.5999 97.0106 44.2582L97.0184 44.254L97.0262 44.2498C99.9486 42.6871 101.371 38.6501 99.9463 35.0924C98.2754 31.0009 94.9379 29.8949 92.0523 30.6429C89.0903 31.4106 86.3147 34.2283 86.3147 38.876C86.3147 40.8154 86.0758 42.5473 85.4493 44.1396C84.8142 45.7538 83.8406 47.073 82.5854 48.2663L82.5735 48.2776L82.5614 48.2888L79.6095 51.022L75.6887 54.6523L75.4143 49.316L74.9223 39.7499L74.9217 39.7386L74.9213 39.7274C74.7406 35.4686 74.6827 32.6661 75.0701 30.616C75.5203 28.2343 76.5587 26.874 77.9793 25.439C80.1348 23.2617 80.505 20.1859 79.4727 17.5492C78.4419 14.9161 76.1528 13.0503 73.2372 13.0503C69.2968 13.0503 66.9607 14.2832 65.7892 15.8609C64.6256 17.4281 64.1533 19.9529 65.2786 23.5526C66.0148 25.6574 66.3874 27.4438 66.2124 29.6049C66.0472 31.6434 65.3993 33.8932 64.4235 36.9118L64.4212 36.9191L64.4188 36.9263L62.0819 44.0077L59.853 50.7619L57.3657 44.0986L54.5368 36.5202L54.5309 36.5045L54.5253 36.4887C53.4704 33.5429 52.8063 31.2795 52.5699 29.4426C52.3214 27.5122 52.5267 25.9111 53.3132 24.4195C55.007 21.185 54.3222 17.6936 52.3483 15.289C50.3832 12.895 47.3473 11.7926 44.2885 12.9916C42.5862 13.7034 41.5046 14.6135 40.8047 15.7213C40.0897 16.8532 39.6345 18.4121 39.5769 20.6433C39.5825 23.11 40.2815 24.5885 41.2246 25.4777C42.6538 26.7588 43.5358 28.1909 43.997 30.3781C44.4131 32.3519 44.4966 35.0042 44.4966 38.7518C44.4966 41.2869 44.4029 43.636 44.2398 45.3824C44.1596 46.2407 44.0557 47.0329 43.917 47.6507C43.8522 47.9391 43.7503 48.3282 43.577 48.6974C43.4937 48.8748 43.3291 49.1907 43.0375 49.4971C42.7444 49.8051 42.1039 50.321 41.1357 50.321C40.6147 50.321 40.1948 50.1729 39.9911 50.0932C39.7469 49.9977 39.5245 49.8823 39.3417 49.7782C38.9743 49.5691 38.5904 49.3043 38.227 49.0333C37.4905 48.4842 36.6524 47.7706 35.8703 47.0465L35.8582 47.0353L35.8463 47.0239C34.6634 45.8994 33.6908 44.6902 33.1512 43.2444Z" fill="white" stroke="black" stroke-width="5"/>
</svg>
