<svg width="120" height="120" viewBox="0 0 120 120" fill="none" xmlns="http://www.w3.org/2000/svg">
<path d="M41.0349 22.164L41.0198 22.167L41.0047 22.1698C38.9711 22.5426 37.5636 22.8494 36.5538 23.1905C35.5497 23.5295 35.2146 23.8155 35.0835 23.9715C34.9811 24.0934 34.806 24.3653 34.7379 25.2016C34.666 26.0849 34.7334 27.308 34.9182 29.1401L34.9191 29.1502C35.417 34.2958 35.8003 37.022 36.3924 38.8399C36.9099 40.4283 37.5843 41.3265 39.0569 42.7017C39.058 42.7027 39.059 42.7036 39.06 42.7046L42.131 45.5535L43.0639 46.419L42.9132 47.6825L40.9439 64.1885L40.942 64.2043L40.94 64.2201C40.3202 68.9075 39.635 73.1843 39.0056 76.3418C38.6927 77.9116 38.3834 79.2564 38.0909 80.252C37.9477 80.7392 37.7857 81.2226 37.5999 81.6304C37.5092 81.8293 37.3755 82.0941 37.187 82.3545C37.0585 82.5319 36.6474 83.0805 35.888 83.3618C35.8698 83.3721 35.7952 83.4123 35.6543 83.5054C35.4353 83.6503 35.1491 83.8608 34.8109 84.1322C34.1437 84.6677 33.3619 85.3698 32.63 86.1059C31.7148 87.084 31.2676 87.8039 30.9822 88.7702C30.6596 89.8623 30.5 91.4184 30.5 94.1742V98.5H60H89.5V94.1742C89.5 91.4184 89.3404 89.8623 89.0178 88.7702C88.7323 87.8039 88.2852 87.084 87.37 86.1059C86.6381 85.3698 85.8563 84.6677 85.1891 84.1322C84.8509 83.8608 84.5647 83.6503 84.3457 83.5054C84.2048 83.4123 84.1302 83.3721 84.112 83.3618C83.3526 83.0805 82.9415 82.5319 82.813 82.3545C82.6245 82.0941 82.4908 81.8293 82.4001 81.6304C82.2143 81.2226 82.0523 80.7392 81.9091 80.252C81.6166 79.2564 81.3073 77.9116 80.9944 76.3418C80.365 73.1843 79.6798 68.9075 79.06 64.2201L79.0579 64.2043L79.0561 64.1885L77.0868 47.6825L76.9361 46.419L77.869 45.5535L80.94 42.7046C80.9409 42.7038 80.9418 42.7029 80.9426 42.7021C82.4155 41.3266 83.0901 40.4285 83.6076 38.8399C84.1997 37.022 84.583 34.2958 85.0808 29.1502L85.0819 29.1401C85.2666 27.308 85.334 26.0849 85.2621 25.2016C85.194 24.3653 85.0189 24.0934 84.9165 23.9715C84.7854 23.8155 84.4503 23.5295 83.4462 23.1905C82.4364 22.8494 81.0289 22.5426 78.9953 22.1698L78.9802 22.167L78.9651 22.164C77.8802 21.9513 77.2411 21.8388 76.8022 21.8074C76.783 21.8522 76.7619 21.9035 76.7391 21.9619C76.526 22.509 76.3002 23.3054 75.9512 24.5851C75.4569 26.4123 74.8531 27.9514 74.1322 29.0878C73.5375 30.0252 72.3003 31.5611 70.3299 31.4694C68.2492 31.3726 67.2358 29.5904 66.8134 28.565C66.3055 27.3318 66.0074 25.7214 65.8755 23.8588L65.6627 20.855L60.4895 20.5942L60.4784 20.5936L60.4674 20.593C58.4571 20.4738 56.5903 20.4758 55.2002 20.5616C54.7965 20.5865 54.4506 20.6175 54.1644 20.6514C54.1441 20.7644 54.1238 20.8883 54.1038 21.0231C53.9704 21.9248 53.8846 23.1041 53.8846 24.3027C53.8846 26.0952 53.6741 27.6833 53.1707 28.9106C52.7121 30.0285 51.5553 31.7552 49.3788 31.589C47.6045 31.4534 46.4605 30.0568 45.841 29.071C45.1176 27.9199 44.5136 26.3882 44.0449 24.5709C43.6981 23.2995 43.4732 22.507 43.2609 21.9619C43.2381 21.9035 43.217 21.8522 43.1978 21.8074C42.7589 21.8388 42.1198 21.9513 41.0349 22.164Z" fill="white" stroke="black" stroke-width="5"/>
</svg>
